<?xml version="1.0" encoding="UTF-8"?>
<svg width="195px" height="52px" viewBox="0 0 195 52" version="1.1" xmlns="http://www.w3.org/2000/svg" xmlns:xlink="http://www.w3.org/1999/xlink">
    <!-- Generator: Sketch 61.2 (89653) - https://sketch.com -->
    <title>gatsby-inc-vector-logo</title>
    <desc>Created with Sketch.</desc>
    <g id="Welcome" stroke="none" stroke-width="1" fill="none" fill-rule="evenodd">
        <g id="Desktop-HD" transform="translate(-399.000000, -724.000000)" fill-rule="nonzero">
            <g id="Sponsors" transform="translate(396.000000, 692.000000)">
                <g id="gatsby-inc-vector-logo" transform="translate(3.000000, 32.000000)">
                    <path d="M115.734874,22.5828285 L120.863412,22.5828285 L120.863412,41.1771858 L115.734874,41.1771858 L115.734874,38.7461214 C113.884705,41.5385602 111.515191,41.7028214 110.054531,41.7028214 C104.374189,41.7028214 100.70631,37.2349192 100.70631,31.8471549 C100.70631,26.2622773 104.374189,21.9914885 109.697481,21.9914885 C111.158141,21.9914885 113.917164,22.1886019 115.572579,24.9481885 L115.572579,22.5171241 L115.734874,22.5171241 L115.734874,22.5828285 Z M106.159439,31.8800072 C106.159439,34.8367071 108.171903,37.0706581 111.287977,37.0706581 C114.209296,37.0706581 116.416515,34.8367071 116.416515,31.8800072 C116.416515,28.9233072 114.404051,26.6893562 111.287977,26.6893562 C108.366658,26.656504 106.159439,28.890455 106.159439,31.8800072 Z M130.958193,27.0507306 L130.958193,41.1771858 L125.829655,41.1771858 L125.829655,27.0507306 L123.81719,27.0507306 L123.81719,22.5828285 L125.829655,22.5828285 L125.829655,16.275202 L130.958193,16.275202 L130.958193,22.5828285 L134.431317,22.5828285 L134.431317,27.0507306 L130.958193,27.0507306 Z M146.571021,27.0507306 C145.272656,25.9337551 144.169047,25.7366418 143.649701,25.7366418 C142.351337,25.7366418 141.637237,26.2951295 141.637237,27.2149917 C141.637237,27.7734795 141.831992,28.3319673 143.292651,28.890455 L144.591015,29.2518295 C146.051675,29.8103172 148.258894,30.368805 149.167749,31.8471549 C149.719553,32.602756 150.076603,33.7197316 150.076603,35.0009682 C150.076603,36.6764315 149.524799,38.3518948 148.064139,39.6331314 C146.60348,40.914368 144.753311,41.6699691 142.546092,41.6699691 C138.683459,41.6699691 136.670995,39.7973925 135.37263,38.5161559 L138.131654,35.3623426 C139.235264,36.4793182 140.695923,37.5962937 142.156583,37.5962937 C143.617242,37.5962937 144.720852,36.8406926 144.720852,35.559456 C144.720852,34.4424804 143.811997,33.8839927 143.065438,33.6868793 L141.961828,33.3255049 C140.663464,32.7670171 139.202804,32.2085294 138.099195,31.0915539 C137.19034,30.1716917 136.638535,29.0547161 136.638535,27.5763662 C136.638535,25.7037895 137.54739,24.2254396 138.488704,23.3055774 C139.949364,22.1886019 141.799533,21.9914885 143.260192,21.9914885 C144.558556,21.9914885 146.733316,22.1886019 149.13529,24.0283263 C149.13529,24.0611785 146.571021,27.0507306 146.571021,27.0507306 Z M157.769411,24.9810407 C159.619579,22.3857152 162.183848,22.0243408 163.644508,22.0243408 C168.967801,22.0243408 172.635679,26.2951295 172.635679,31.8800072 C172.635679,37.4648848 168.967801,41.7356736 163.449753,41.7356736 C162.346144,41.7356736 159.58712,41.5385602 157.574656,38.7789737 L157.574656,41.210038 L152.608413,41.210038 L152.608413,10.0002132 L157.736951,10.0002132 C157.769411,9.93472329 157.769411,24.9810407 157.769411,24.9810407 Z M157.217606,31.8800072 C157.217606,34.8367071 159.23007,37.0706581 162.346144,37.0706581 C165.267463,37.0706581 167.474682,34.8367071 167.474682,31.8800072 C167.474682,28.9233072 165.462218,26.6893562 162.346144,26.6893562 C159.23007,26.656504 157.217606,28.890455 157.217606,31.8800072 Z M181.075045,38.384747 L172.278629,22.5828285 L178.348481,22.5828285 L184.028824,33.1612438 L189.157362,22.5828285 L195,22.5828285 L180.328486,51 L174.453389,51 C174.453389,51 181.075045,38.384747 181.075045,38.384747 Z M99.3754869,25.7366418 L86.5216827,25.7366418 L86.5216827,30.9272927 L93.3056349,30.9272927 C92.2020254,34.4424804 89.6377564,36.8735448 84.8662685,36.8735448 C79.5429759,36.8735448 75.6803428,32.4056427 75.6803428,27.0178784 C75.6803428,21.6301141 79.3482212,16.9979509 84.6715139,16.9979509 C87.592833,16.9979509 90.5466113,18.4763008 92.3967801,20.9073652 L96.6164633,18.1149264 C93.8574396,14.2055121 89.4430018,11.971561 84.6715139,11.971561 C76.5891976,11.971561 70,18.6734142 70,27.0178784 C70,35.3623426 76.2321475,42.0641958 84.6715139,42.0641958 C93.1108803,42.0641958 99.3430278,35.3623426 99.3430278,27.0178784 C99.5702415,26.4922429 99.3754869,26.0980162 99.3754869,25.7366418 Z" id="Shape" fill="#FFFFFF"></path>
                    <path d="M46,25.5662359 L32.9485531,25.5662359 L32.9485531,29.3085622 L41.9131833,29.3085622 C40.5948553,34.9386107 36.5080386,39.6082391 31.1028939,41.4959612 L9.68006431,19.9693053 C11.9212219,13.4119548 18.2491961,8.74232633 25.5329582,8.74232633 C31.1358521,8.74232633 36.1454984,11.5573506 39.3094855,15.8626817 L42.1109325,13.4119548 C38.3866559,8.34491115 32.4212219,5 25.5329582,5 C15.8432476,5 7.63665595,11.9216478 5.59324759,21.095315 L30.1800643,45.8012924 C39.1117363,43.549273 46,35.3029079 46,25.5662359 Z M5,25.7649435 C5,30.9975767 7.04340836,36.0646204 10.9654341,40.0056543 C14.8874598,43.9466882 20.0948553,46 25.1374598,46 L5,25.7649435 Z" id="Shape" fill="#FFFFFF"></path>
                    <path d="M26,0 C11.719697,0 0,11.719697 0,26 C0,40.280303 11.6868687,52 26,52 C40.3131313,52 52,40.3131313 52,26 C52,11.6868687 40.3131313,0 26,0 Z M11.5227273,40.4772727 C7.61616162,36.5707071 5.58080808,31.3838384 5.58080808,26.3611111 L25.8030303,46.4191919 C20.6161616,46.2222222 15.4292929,44.3838384 11.5227273,40.4772727 Z M30.4646465,45.8611111 L6.13888889,21.5353535 C8.17424242,12.4419192 16.3484848,5.58080808 26,5.58080808 C32.8611111,5.58080808 38.8030303,8.92929293 42.5126263,13.9191919 L39.7222222,16.3484848 C36.5707071,12.0808081 31.5479798,9.29040404 26,9.29040404 C18.7449495,9.29040404 12.6388889,13.9191919 10.209596,20.4191919 L31.5479798,41.7575758 C36.9318182,39.8863636 41.0025253,35.2575758 42.3156566,29.6767677 L33.4191919,29.6767677 L33.4191919,26 L46.4191919,26 C46.4191919,35.6515152 39.5580808,43.8257576 30.4646465,45.8611111 Z" id="Shape" fill="#663399"></path>
                </g>
            </g>
        </g>
    </g>
</svg>