<?xml version="1.0" encoding="UTF-8"?>
<svg width="194px" height="50px" viewBox="0 0 194 50" version="1.1" xmlns="http://www.w3.org/2000/svg" xmlns:xlink="http://www.w3.org/1999/xlink">
    <!-- Generator: Sketch 61.2 (89653) - https://sketch.com -->
    <title>Yellow - White - Transparent</title>
    <desc>Created with Sketch.</desc>
    <g id="Welcome" stroke="none" stroke-width="1" fill="none" fill-rule="evenodd">
        <g id="Desktop-HD" transform="translate(-634.000000, -724.000000)">
            <g id="Sponsors" transform="translate(396.000000, 692.000000)">
                <g id="Yellow---White---Transparent" transform="translate(238.000000, 32.000000)">
                    <path d="M78.1398356,37.9197063 C79.9814655,37.941235 81.8137483,37.6550805 83.5609741,37.0730666 L83.5609741,31.9383538 C81.7145756,31.1211577 79.7117169,30.7171515 77.6926505,30.7546261 C74.7820247,30.7546261 72.718697,31.6953369 72.718697,34.1019885 C72.718697,36.383212 74.5074374,37.8961885 78.1398356,37.8961885 M87.099228,27.0701757 L87.099228,39.0877554 C84.2863229,40.4223479 81.214451,41.1234857 78.1006088,41.1416405 C71.6438838,41.1416405 69,38.1940802 69,34.3058092 C69,30.017736 72.7657692,27.6110844 77.6926505,27.6110844 C79.6991336,27.5865212 81.6915588,27.9484988 83.5609741,28.6772232 L83.5609741,27.0701757 C83.5609741,23.9344733 81.5054917,22.2098369 77.7867947,22.2098369 C75.6308058,22.1992483 73.5269177,22.87164 71.7772548,24.1304547 C70.8130001,23.6666407 70.1301448,22.7685381 69.9414423,21.7159638 C71.2829976,20.375451 74.3740664,18.8546353 77.9593925,18.8546353 C83.0274901,18.8546353 87.099228,21.2064121 87.099228,27.0701757 M109.364338,35.2857162 L109.364338,23.5268319 C107.970342,22.5642849 106.303566,22.0750844 104.610055,22.1314443 C100.130358,22.1314443 97.0392895,25.212272 97.0392895,29.6336125 C97.0392895,34.054953 100.130358,36.8222104 104.610055,36.8222104 C106.331562,36.8852177 108.018547,36.3288895 109.364338,35.2543592 M112.988891,21.5513394 L112.988891,39.9735914 C112.988891,45.2415715 108.917153,49.2631099 102.907613,49.2631099 C99.1889161,49.2631099 95.846796,48.1029 93.6814787,45.6021773 C94.0893843,44.4921936 94.9425296,43.6027704 96.0350844,43.1484901 C97.7770854,45.1068409 100.311937,46.1730141 102.931149,46.0490149 C107.410845,46.0490149 109.387874,43.3679893 109.387874,39.9735914 L109.387874,38.7741852 C107.820592,39.5834102 106.083901,40.0105299 104.319777,40.0206269 C98.318082,40.0206269 93.3362832,36.1009988 93.3362832,29.6649695 C93.3362832,23.3935646 98.0434946,18.8546353 104.625745,18.8546353 C107.653199,18.8302903 110.606931,19.7875129 113.043808,21.5826964 M120.810707,40.7967133 L120.810707,19.7247927 C121.41484,19.6019572 122.030014,19.5415383 122.64652,19.5444898 C123.250228,19.5376645 123.852814,19.5981392 124.443106,19.7247927 L124.443106,40.8045525 C123.242992,41.0318687 122.010821,41.0318687 120.810707,40.8045525 M120.026161,13.5631373 C120.022018,12.1558469 121.157281,11.0100299 122.565637,11.0000654 C123.973992,10.9901009 125.12538,12.1197392 125.14117,13.5269473 C125.15696,14.9341555 124.031209,16.0893052 122.622984,16.1108956 C121.939257,16.1213783 121.279803,15.8578408 120.791876,15.3791311 C120.30395,14.9004214 120.028189,14.2464099 120.026161,13.5631373 L120.026161,13.5631373 M132.578736,40.5301786 L132.578736,11.195682 C133.777319,10.9526338 135.012551,10.9526338 136.211134,11.195682 L136.211134,40.5380178 C135.604088,40.6582635 134.98631,40.716053 134.367476,40.7104814 C133.766817,40.7160442 133.167249,40.658236 132.578736,40.5380178 M144.346765,40.8045525 L144.346765,19.7247927 C144.950897,19.6019572 145.566071,19.5415383 146.182577,19.5444898 C146.786285,19.5376645 147.388871,19.5981392 147.979163,19.7247927 L147.979163,40.8045525 C146.779049,41.0318687 145.546878,41.0318687 144.346765,40.8045525 M143.562218,13.5631373 C143.558075,12.1558469 144.693338,11.0100299 146.101694,11.0000654 C147.51005,10.9901009 148.661437,12.1197392 148.677227,13.5269473 C148.693017,14.9341555 147.567266,16.0893052 146.159041,16.1108956 C145.475315,16.1213783 144.81586,15.8578408 144.327933,15.3791311 C143.840007,14.9004214 143.564246,14.2464099 143.562218,13.5631373 L143.562218,13.5631373 M170.832674,39.2053443 C169.190824,40.631483 167.092701,41.4239239 164.917279,41.4395323 C160.665098,41.4395323 157.566183,39.4248434 157.566183,34.3842017 L157.566183,22.91537 L153.941631,22.91537 C153.814941,22.434547 153.754238,21.9387496 153.761187,21.4415898 C153.754457,20.9573472 153.815187,20.4745238 153.941631,20.0070059 L157.566183,20.0070059 L157.566183,14.3313845 C158.156475,14.204731 158.759061,14.1442562 159.362769,14.1510816 C159.950916,14.1442524 160.537912,14.2047475 161.112283,14.3313845 L161.112283,20.0070059 L169.451892,20.0070059 C169.57577,20.47221 169.633866,20.9524514 169.62449,21.4337505 C169.634714,21.9331713 169.576645,22.4316485 169.451892,22.91537 L161.080901,22.91537 L161.080901,33.6629902 C161.080901,37.4571901 162.869642,38.2646335 165.152639,38.2646335 C166.630101,38.1867466 168.043561,37.6371895 169.18515,36.6967823 C170.032462,37.3060559 170.611477,38.2188394 170.801293,39.2445405 M194,20.1245948 C190.508818,33.4513302 186.515534,41.4708893 178.678027,50 C177.513389,49.7436161 176.553813,48.9230217 176.120442,47.8128475 C178.247017,45.5412542 180.154065,43.0739923 181.816168,40.4439467 C178.025034,34.0676153 175.171488,27.1795456 173.343187,19.9913274 C174.07088,19.7737601 174.827451,19.6680281 175.586958,19.6777572 C176.125768,19.6789603 176.663606,19.7235269 177.195255,19.8110245 C178.708512,25.6632515 180.874309,31.3272873 183.65198,36.6967823 L184.005021,37.3709583 C184.099165,37.1436199 184.232536,36.963317 184.318835,36.7438178 C187.028697,31.3644243 189.04785,25.6646162 190.328375,19.7796675 C190.815684,19.6960922 191.308893,19.6515282 191.803301,19.6464001 C192.55661,19.6608611 193.300986,19.812277 194,20.0932377" id="Shape" fill="#FFFFFF"></path>
                    <polygon id="Path" fill="#FFCB28" points="33.9983611 42.1398071 13.6880634 42.1398071 29 15.7362012 44.3119366 42.1398071 48.7795684 50 58 50 29 0 0 50 37.5629609 50"></polygon>
                </g>
            </g>
        </g>
    </g>
</svg>